<svg xmlns="http://www.w3.org/2000/svg" viewBox="0 0 177.67 182.06"><defs><style>.cls-1{isolation:isolate;}.cls-2{fill:#607d8b;}.cls-3,.cls-4{fill:#fff;}.cls-4,.cls-7{mix-blend-mode:overlay;}.cls-4{opacity:0.3;}.cls-5{fill:#f44336;}.cls-6{fill:#263238;}.cls-7{opacity:0.5;}.cls-8{fill:#00bcd4;}</style></defs><g class="cls-1"><g id="Layer_1" data-name="Layer 1"><circle class="cls-2" cx="47.73" cy="36.4" r="13.41" transform="translate(4.14 77.66) rotate(-80.76)"/><path class="cls-3" d="M47.73,51.36a15,15,0,1,1,15-15A15,15,0,0,1,47.73,51.36Zm0-26.82A11.86,11.86,0,1,0,59.58,36.4,11.87,11.87,0,0,0,47.73,24.54Z"/><circle class="cls-4" cx="44.7" cy="31.86" r="4.36"/><circle class="cls-2" cx="66.6" cy="22.99" r="13.41"/><path class="cls-3" d="M66.6,38a15,15,0,1,1,15-15A15,15,0,0,1,66.6,38Zm0-26.82A11.86,11.86,0,1,0,78.45,23,11.87,11.87,0,0,0,66.6,11.13Z"/><circle class="cls-2" cx="90.57" cy="14.97" r="13.41"/><path class="cls-3" d="M90.57,29.93a15,15,0,1,1,15-15A15,15,0,0,1,90.57,29.93Zm0-26.82A11.86,11.86,0,1,0,102.42,15,11.86,11.86,0,0,0,90.57,3.11Z"/><circle class="cls-2" cx="110.91" cy="22.99" r="13.41"/><path class="cls-3" d="M110.91,38a15,15,0,1,1,15-15A15,15,0,0,1,110.91,38Zm0-26.82A11.86,11.86,0,1,0,122.76,23,11.86,11.86,0,0,0,110.91,11.13Z"/><circle class="cls-2" cx="81.81" cy="30.92" r="13.41" transform="translate(37.74 106.46) rotate(-80.45)"/><path class="cls-3" d="M81.81,45.89a15,15,0,1,1,15-15A15,15,0,0,1,81.81,45.89Zm0-26.82A11.85,11.85,0,1,0,93.66,30.92,11.87,11.87,0,0,0,81.81,19.07Z"/><circle class="cls-2" cx="68.59" cy="40.49" r="13.41" transform="translate(17.93 101.96) rotate(-81.06)"/><path class="cls-3" d="M68.59,55.46a15,15,0,1,1,15-15A15,15,0,0,1,68.59,55.46Zm0-26.82A11.86,11.86,0,1,0,80.44,40.49,11.86,11.86,0,0,0,68.59,28.64Z"/><circle class="cls-2" cx="100.48" cy="36.12" r="13.41"/><path class="cls-3" d="M100.48,51.08a15,15,0,1,1,15-15A15,15,0,0,1,100.48,51.08Zm0-26.81a11.85,11.85,0,1,0,11.85,11.85A11.86,11.86,0,0,0,100.48,24.27Z"/><circle class="cls-2" cx="114.87" cy="38.94" r="13.41" transform="translate(50.49 141.73) rotate(-76.67)"/><path class="cls-3" d="M114.87,53.9a15,15,0,1,1,15-15A15,15,0,0,1,114.87,53.9Zm0-26.82a11.86,11.86,0,1,0,11.85,11.86A11.87,11.87,0,0,0,114.87,27.08Z"/><circle class="cls-2" cx="130.58" cy="36.86" r="13.41" transform="translate(-4.13 53.07) rotate(-22.63)"/><path class="cls-3" d="M130.58,51.83a15,15,0,1,1,15-15A15,15,0,0,1,130.58,51.83Zm0-26.82a11.86,11.86,0,1,0,11.85,11.85A11.87,11.87,0,0,0,130.58,25Z"/><polygon class="cls-5" points="128.52 182.06 49.78 182.06 35.07 41.51 143.23 41.51 128.52 182.06"/><polygon class="cls-3" points="121.16 182.06 57.15 182.06 45.19 41.51 133.12 41.51 121.16 182.06"/><polygon class="cls-5" points="112.81 182.06 65.5 182.06 56.66 41.51 121.65 41.51 112.81 182.06"/><polygon class="cls-3" points="103.72 182.06 74.58 182.06 69.14 41.51 109.16 41.51 103.72 182.06"/><polygon class="cls-5" points="93.68 182.06 84.62 182.06 82.93 41.51 95.37 41.51 93.68 182.06"/><polygon class="cls-6" points="48.7 171.66 49.78 182.06 57.15 182.06 65.5 182.06 74.58 182.06 84.62 182.06 93.68 182.06 103.72 182.06 112.81 182.06 121.16 182.06 128.52 182.06 129.61 171.66 48.7 171.66"/><polygon class="cls-6" points="142.23 51.13 143.23 41.51 133.12 41.51 121.65 41.51 109.16 41.51 95.37 41.51 35.07 41.51 36.08 51.13 142.23 51.13"/><g class="cls-7"><polygon class="cls-3" points="89.15 41.51 89.15 182.06 93.68 182.06 103.72 182.06 112.81 182.06 121.15 182.06 121.16 182.06 128.52 182.06 128.52 182.06 143.23 41.51 143.23 41.51 89.15 41.51"/></g><path class="cls-4" d="M70.47,34.77a4.36,4.36,0,1,1-4.35-4.36A4.36,4.36,0,0,1,70.47,34.77Z"/><circle class="cls-4" cx="96.31" cy="31.11" r="4.36"/><path class="cls-4" d="M91.65,10.82a4.36,4.36,0,1,1-4.36-4.36A4.36,4.36,0,0,1,91.65,10.82Z"/><path class="cls-4" d="M85.68,24.4A4.36,4.36,0,1,1,81.32,20,4.36,4.36,0,0,1,85.68,24.4Z"/><path class="cls-4" d="M113,18.14a4.36,4.36,0,1,1-4.36-4.36A4.36,4.36,0,0,1,113,18.14Z"/><circle class="cls-4" cx="111.1" cy="34.1" r="4.36"/><path class="cls-4" d="M132.15,31.55a4.36,4.36,0,1,1-4.36-4.36A4.36,4.36,0,0,1,132.15,31.55Z"/><path class="cls-4" d="M67.62,18.14a4.36,4.36,0,1,1-4.36-4.36A4.36,4.36,0,0,1,67.62,18.14Z"/><path class="cls-6" d="M174.76,133.24a2.91,2.91,0,0,1,2.91-2.91v-2.75a2.91,2.91,0,1,1,0-5.82V119a2.91,2.91,0,1,1,0-5.82v-2.75a2.91,2.91,0,0,1,0-5.82v-2.75a2.91,2.91,0,1,1,0-5.82V93.3a2.91,2.91,0,1,1,0-5.82V85.13a14.54,14.54,0,0,1-14.55-14.55H14.55A14.54,14.54,0,0,1,0,85.13v2.35A2.91,2.91,0,0,1,0,93.3v2.75a2.91,2.91,0,0,1,0,5.82v2.75a2.91,2.91,0,0,1,0,5.82v2.75A2.91,2.91,0,0,1,0,119v2.75a2.91,2.91,0,0,1,0,5.82v2.75a2.91,2.91,0,1,1,0,5.82v2.35a14.54,14.54,0,0,1,14.55,14.55H163.12a14.54,14.54,0,0,1,14.55-14.55v-2.35A2.91,2.91,0,0,1,174.76,133.24Z"/><path class="cls-8" d="M160.3,146.64H17.37v-1.56a9.3,9.3,0,0,0-9.29-9.29H6.53V87.84H8.08a9.3,9.3,0,0,0,9.29-9.29V77H160.3v1.56a9.3,9.3,0,0,0,9.29,9.29h1.55v47.95h-1.55a9.3,9.3,0,0,0-9.29,9.29ZM20.39,143.52H157.28A12.44,12.44,0,0,1,168,132.78V90.85A12.44,12.44,0,0,1,157.28,80.1H20.39A12.43,12.43,0,0,1,9.64,90.85v41.93A12.43,12.43,0,0,1,20.39,143.52Z"/><rect class="cls-8" x="31.43" y="78.55" width="3.11" height="66.53"/><rect class="cls-8" x="143.13" y="78.55" width="3.11" height="66.53"/><path class="cls-3" d="M60.05,109a9,9,0,0,1,.5,1.34,9.54,9.54,0,0,1,.29,1.39,11.13,11.13,0,0,1-2.18.58,15.05,15.05,0,0,1-2.09.14,8.75,8.75,0,0,1-3.48-.64,6.92,6.92,0,0,1-2.5-1.8,7.57,7.57,0,0,1-1.53-2.74,11,11,0,0,1-.52-3.46,10.73,10.73,0,0,1,.54-3.46,8.22,8.22,0,0,1,1.55-2.77,7.05,7.05,0,0,1,2.5-1.82,8.37,8.37,0,0,1,3.37-.65,14.65,14.65,0,0,1,2.07.14,9.09,9.09,0,0,1,2,.58,5,5,0,0,1-.28,1.37c-.16.44-.33.89-.51,1.34a10.5,10.5,0,0,0-1.45-.4A9.17,9.17,0,0,0,56.88,98a4.21,4.21,0,0,0-3.45,1.45,6.71,6.71,0,0,0-1.2,4.33q0,5.7,4.83,5.7a8.52,8.52,0,0,0,1.52-.12A11.66,11.66,0,0,0,60.05,109Z"/><path class="cls-3" d="M63.39,95.34a10.93,10.93,0,0,1,1.7-.14,11.52,11.52,0,0,1,1.73.14v16.78a11.34,11.34,0,0,1-1.7.14,11.11,11.11,0,0,1-1.73-.14Z"/><path class="cls-3" d="M70.09,95.34a7.49,7.49,0,0,1,1.37-.14,8.17,8.17,0,0,1,1.45.14L79.4,106V95.34A10.21,10.21,0,0,1,81,95.2a7.15,7.15,0,0,1,1.4.14v16.78a7.74,7.74,0,0,1-1.35.14,8.41,8.41,0,0,1-1.43-.14L73.1,101.45v10.67a8.6,8.6,0,0,1-1.52.14,8.1,8.1,0,0,1-1.49-.14Z"/><path class="cls-3" d="M85.68,95.34H95.2a7.43,7.43,0,0,1,.14,1.42,7.64,7.64,0,0,1-.14,1.47H89.09v3.64h4.85a8.17,8.17,0,0,1,.14,1.45,8,8,0,0,1-.14,1.47H89.09v4.44h6.27a6.71,6.71,0,0,1,.14,1.42,7.05,7.05,0,0,1-.14,1.47H85.68Z"/><path class="cls-3" d="M98.54,95.34a12.53,12.53,0,0,1,1.79-.14,11.92,11.92,0,0,1,1.8.14L106,105l4-9.61a8.78,8.78,0,0,1,1.61-.14,10.57,10.57,0,0,1,1.71.14l.79,16.78a11.19,11.19,0,0,1-1.68.14,9,9,0,0,1-1.56-.14l-.43-11.39-3.4,7.89-.68.08c-.23,0-.47,0-.7,0l-.61,0a3.68,3.68,0,0,1-.63-.09l-3.17-8.05-.33,11.55a8.17,8.17,0,0,1-1.45.14,9.28,9.28,0,0,1-1.54-.14Z"/><path class="cls-3" d="M121,95.34c.32,0,.64-.08.93-.11s.62,0,1,0,.62,0,.91,0l1,.11,5.25,16.78a13.27,13.27,0,0,1-1.86.14,10.92,10.92,0,0,1-1.73-.14l-.93-3.36H120l-1,3.36a10.11,10.11,0,0,1-1.61.14,10.73,10.73,0,0,1-1.7-.14Zm3.73,10.6-1.93-7-2,7Z"/><path class="cls-3" d="M75.37,121.29H72.46a1.74,1.74,0,0,1,0-.34c0-.12,0-.24,0-.36s0-.23,0-.35a1.63,1.63,0,0,1,0-.33h7.4a3.06,3.06,0,0,1,0,.32c0,.12,0,.23,0,.35s0,.23,0,.36a2.94,2.94,0,0,1,0,.35H77v9.81a6.35,6.35,0,0,1-.78,0,6.69,6.69,0,0,1-.8,0Z"/><path class="cls-3" d="M81.62,119.91l.39,0h.81l.39,0V131.1l-.38,0-.42,0-.41,0-.38,0Z"/><path class="cls-3" d="M86.26,119.91l.43,0h.93l.43,0,2.89,7,2.91-7,.39,0h.9a3.47,3.47,0,0,1,.42,0l.53,11.19-.38,0-.39,0-.4,0-.37,0-.36-8.7-2.73,6.38a4.49,4.49,0,0,1-.64,0,3.81,3.81,0,0,1-.59,0l-2.65-6.43-.36,8.75-.35,0-.36,0-.39,0-.36,0Z"/><path class="cls-3" d="M98.65,119.91h6.14a4.72,4.72,0,0,1,0,.68c0,.12,0,.24,0,.36a1.76,1.76,0,0,1,0,.34h-4.56v3.21h3.64a2.88,2.88,0,0,1,0,.33c0,.12,0,.24,0,.35s0,.24,0,.36a2.75,2.75,0,0,1,0,.34h-3.64v3.83h4.69a4.93,4.93,0,0,1,0,.69c0,.11,0,.23,0,.35a1.9,1.9,0,0,1,0,.35H98.65Z"/><polygon class="cls-3" points="21.23 92.68 22.65 95.55 25.81 96 23.52 98.23 24.06 101.39 21.23 99.9 18.41 101.39 18.95 98.23 16.66 96 19.82 95.55 21.23 92.68"/><polygon class="cls-3" points="21.23 107.46 22.65 110.33 25.81 110.79 23.52 113.02 24.06 116.17 21.23 114.68 18.41 116.17 18.95 113.02 16.66 110.79 19.82 110.33 21.23 107.46"/><polygon class="cls-3" points="21.23 122.24 22.65 125.11 25.81 125.57 23.52 127.8 24.06 130.95 21.23 129.46 18.41 130.95 18.95 127.8 16.66 125.57 19.82 125.11 21.23 122.24"/><polygon class="cls-3" points="156.06 92.68 157.47 95.55 160.63 96 158.35 98.23 158.89 101.39 156.06 99.9 153.23 101.39 153.77 98.23 151.48 96 154.64 95.55 156.06 92.68"/><polygon class="cls-3" points="156.06 107.46 157.47 110.33 160.63 110.79 158.35 113.02 158.89 116.17 156.06 114.68 153.23 116.17 153.77 113.02 151.48 110.79 154.64 110.33 156.06 107.46"/><polygon class="cls-3" points="156.06 122.24 157.47 125.11 160.63 125.57 158.35 127.8 158.89 130.95 156.06 129.46 153.23 130.95 153.77 127.8 151.48 125.57 154.64 125.11 156.06 122.24"/></g></g></svg>